<?xml version="1.0" encoding="utf-8"?>
<!-- Generator: Adobe Illustrator 25.4.1, SVG Export Plug-In . SVG Version: 6.00 Build 0)  -->
<svg version="1.1" id="Calque_1" xmlns="http://www.w3.org/2000/svg" xmlns:xlink="http://www.w3.org/1999/xlink" x="0px" y="0px"
	 viewBox="0 0 124.26 127.07" style="enable-background:new 0 0 124.26 127.07;" xml:space="preserve">
<style type="text/css">
	.st0{fill:#10896b;}
</style>
<g>
	<path class="st0" d="M53.58,35.16c-3.17,0.33-6.25,0.64-9.31,0.97c-1.58,0.17-3.15,0.24-4.73-0.08c-0.68-0.14-1.29-0.36-1.84-0.76
		c-0.68-0.49-1.67-0.97-1.35-1.93c0.27-0.79,1.27-0.37,1.95-0.44c4.9-0.51,9.84-0.69,14.71-1.54c0.93-0.16,1.27-0.47,1.4-1.43
		c0.5-3.66,0.41-7.28-0.44-10.88c-0.41-1.74,0.14-2.34,1.87-1.91c2.44,0.6,4.72,1.58,6.51,3.45c0.78,0.81,0.92,1.62,0.35,2.63
		c-1.21,2.17-2,4.5-2.65,7.07c4.43-0.55,8.67-1.28,12.87-2.21c1.99-0.44,3.88-0.13,5.7,0.66c0.68,0.3,1.64,0.52,1.49,1.57
		c-0.12,0.86-0.9,1.04-1.62,1.25c-4.05,1.21-8.26,1.45-12.4,2.17c-1.74,0.3-3.5,0.59-5.25,0.6c-1.45,0.01-1.99,0.58-2.27,1.9
		c-0.5,2.3-1.16,4.57-1.79,7.01c4.23-0.59,8.33-1.36,12.4-2.31c2.44-0.57,4.82-0.47,7.16,0.47c0.73,0.29,1.68,0.52,1.59,1.47
		c-0.08,0.9-1.09,0.9-1.75,1.01c-5.11,0.8-10.22,1.6-15.35,2.27c-4.95,0.65-4.96,0.58-6.57,5.22c-0.36,1.03-0.67,2.07-1.07,3.33
		c3.81-0.35,7.47-0.74,11.14-1.02c6.32-0.48,12.56-1.45,18.71-3.01c3.58-0.91,6.69,0.59,9.64,2.4c0.81,0.49,1.59,1.31,1.23,2.43
		c-0.36,1.12-1.46,0.98-2.33,0.96c-7.43-0.14-14.86,0.04-22.29,0.28c-0.7,0.02-1.41,0-2.53,0c7.36,5.68,13.71,11.92,21.14,16.77
		c6.01,3.92,12.79,6.14,19.62,8.17c0.29,0.09,0.58,0.2,0.87,0.26c0.57,0.12,1.11,0.3,1.17,0.96c0.08,0.81-0.69,0.8-1.14,0.89
		c-3.87,0.79-7.74,1.61-11.64,2.24c-3.73,0.6-6.87-0.91-9.38-3.51c-5.75-5.96-11.38-12.04-17.06-18.07
		c-0.42-0.44-0.85-0.88-1.28-1.31c-6.39-6.39-8.28-6.92-17-4.89c-1.06,0.25-1.19,1.15-1.54,1.85c-2.99,6.01-7.03,11.23-11.89,15.83
		c-6.34,6-13.57,10.43-22.14,12.46c-0.6,0.14-1.39,0.69-1.74-0.16c-0.36-0.87,0.61-1.07,1.14-1.37c5.48-3.06,10.94-6.14,15.55-10.46
		c4.79-4.5,9.61-9.01,12.69-14.96c0.28-0.54,1.08-1.13,0.59-1.69c-0.44-0.5-1.25,0.03-1.86,0.19c-2.88,0.76-5.8,1.41-8.61,2.38
		c-3.51,1.21-6.45,0.21-9.21-1.87c-0.62-0.46-1.42-0.99-1.11-1.91c0.29-0.87,1.22-0.67,1.91-0.69c6.7-0.2,13.37-0.75,19.97-2
		c0.97-0.18,1.49-0.54,1.83-1.42c0.84-2.2,1.83-4.35,2.38-6.74c-2.51-0.03-4.89,0.53-7.29,0.87c-1.94,0.27-3.77,0.04-5.4-1.12
		c-0.43-0.31-0.95-0.71-0.78-1.33c0.18-0.65,0.84-0.61,1.38-0.66c4-0.37,8-0.77,12-1.09c0.9-0.07,1.43-0.32,1.72-1.23
		C52.48,40.62,53.15,38.04,53.58,35.16z"/>
	<path class="st0" d="M75.98,99.08c-0.55-3.92-1.25-7.82-1.44-11.78c-0.18-3.72-0.36-7.44,0.69-11.07c0.81-2.79,0.84-2.78-1.47-4.51
		c-0.44-0.33-0.86-0.68-1.32-0.98c-2.08-1.33-4.08-1.64-6.69-0.91c-7.09,1.97-14.12,4.66-21.75,3.34c-1.44-0.25-1.85,0.39-1.32,1.84
		c0.47,1.26,0.92,2.51,0.98,3.87c0.37,7.66,1.15,15.31,0.36,22.99c-0.13,1.33,0.33,2.51,1,3.62c0.41,0.69,0.93,1.46,1.78,1.33
		c0.76-0.12,1.08-0.96,1.22-1.68c0.26-1.3,0.94-1.67,2.27-1.68c2.68-0.02,5.35-0.36,8.02-0.45c2.19-0.07,4.65-1.23,6.45-0.25
		c1.85,1.01,2.56,3.57,3.7,5.5c1.3,2.2,3.16,2.4,4.71,0.32C75.25,105.79,76.5,102.72,75.98,99.08z M48.48,85.81
		c0.21-2.79,0.35-5.58,0.45-8.37c0.02-0.59,0.3-0.68,0.74-0.81c5.4-1.52,10.83-2.79,16.49-2.77c2.72,0.01,3.3,0.51,3.33,3.3
		c0.03,2.55,0.01,5.11,0.01,8.09c-5.04-2.77-9.69-0.08-14.47,0.63c-1.86,0.28-3.67,0.79-5.57,0.9
		C48.66,86.84,48.42,86.66,48.48,85.81z M69.53,88.12c-0.21,3.76-0.33,7.52-0.5,11.73c-3.87-2.86-7.68-1.22-11.43-0.82
		c-2.54,0.27-5.07,0.64-7.61,0.97c-0.82,0.11-1.36,0.09-1.36-1.04c0.01-2.68-0.13-5.35-0.18-8.04c-0.01-0.52-0.29-1.45,0.78-1.15
		c3.09,0.86,6.02-0.19,9-0.67c3.42-0.55,6.83-1.19,10.24-1.82C69.2,87.15,69.58,87.15,69.53,88.12z"/>
</g>
</svg>
